/* XPM */
static char * AKFQuiz_xpm[] = {
/* Icon for AKFQuiz, Public Domain */
"32 32 4 1",
" 	c None",
".	c #33A300",
"+	c #CCCCCC",
"@	c #A03535",
"   ..........................   ",
"   .+......................+.   ",
"   ..+....................+..   ",
"   ...++++++++++++++++++++...   ",
"   ...++++++++++++++++++++...   ",
"   ...++++++++++++++++++++...   ",
"   ...++++++++++++++++++++...   ",
"   ...++++++++++++++++++++...   ",
"   ...++++++++@@@@@@++++++...   ",
"   ...++++++@@@@+++@@+++++...   ",
"   ...+++++@@@@++++@@@++++...   ",
"   ...+++++@@@+++++@@@++++...   ",
"   ...++++@@@@+++++@@@++++...   ",
"   ...++++@@@++++++@@@++++...   ",
"   ...++++@@@++++++@@@++++...   ",
"   ...++++@@@+++++@@@@++++...   ",
"   ...++++@@@+++++@@@+++++...   ",
"   ...++++@@@+++++@@@+++++...   ",
"   ...+++++@@++++@@@++++++...   ",
"   ...++++++@@@@@+++++++++...   ",
"   ...++++++++@@@@++++++++...   ",
"   ...+++++++++@@@++++++++...   ",
"   ...++++++++++@@@+++++++...   ",
"   ...+++++++++++@@@++++++...   ",
"   ...++++++++++++++++++++...   ",
"   ...++++++++++++++++++++...   ",
"   ...++++++++++++++++++++...   ",
"   ...++++++++++++++++++++...   ",
"   ...++++++++++++++++++++...   ",
"   ..+....................+..   ",
"   .+......................+.   ",
"   ..........................   "};
